<mxfile host="app.diagrams.net" modified="2023-12-19T18:55:38.598Z" agent="Mozilla/5.0 (Windows NT 10.0; Win64; x64) AppleWebKit/537.36 (KHTML, like Gecko) Chrome/120.0.0.0 Safari/537.36 Edg/120.0.0.0" etag="QQPzuXquUWxtvVxxSNTT" version="22.1.11" type="device">
  <diagram name="Page-1" id="8378b5f6-a2b2-b727-a746-972ab9d02e00">
    <mxGraphModel dx="1666" dy="759" grid="1" gridSize="10" guides="1" tooltips="1" connect="0" arrows="1" fold="1" page="1" pageScale="1.5" pageWidth="1169" pageHeight="827" background="none" math="0" shadow="0">
      <root>
        <mxCell id="0" />
        <mxCell id="1" parent="0" />
        <mxCell id="yzSinO0hrtpDDesFTwgu-344" value="" style="strokeColor=#DEEDFF" vertex="1" parent="1">
          <mxGeometry x="1610.0000000000016" y="320.00000000002206" width="20" height="520" as="geometry" />
        </mxCell>
        <mxCell id="yzSinO0hrtpDDesFTwgu-345" value="" style="strokeColor=#DEEDFF" vertex="1" parent="1">
          <mxGeometry x="1630.0000000000016" y="320.00000000002206" width="20" height="520" as="geometry" />
        </mxCell>
        <mxCell id="yzSinO0hrtpDDesFTwgu-346" value="" style="strokeColor=#DEEDFF" vertex="1" parent="1">
          <mxGeometry x="1650.0000000000016" y="320.00000000003297" width="20" height="520" as="geometry" />
        </mxCell>
        <mxCell id="yzSinO0hrtpDDesFTwgu-347" value="" style="strokeColor=#DEEDFF" vertex="1" parent="1">
          <mxGeometry x="1670.0000000000016" y="320.0000000000366" width="20" height="520" as="geometry" />
        </mxCell>
        <mxCell id="yzSinO0hrtpDDesFTwgu-348" value="" style="strokeColor=#DEEDFF" vertex="1" parent="1">
          <mxGeometry x="1690.0000000000016" y="320.0000000000366" width="20" height="520" as="geometry" />
        </mxCell>
        <mxCell id="yzSinO0hrtpDDesFTwgu-349" value="" style="strokeColor=#DEEDFF;fillColor=#D4E1FF" vertex="1" parent="1">
          <mxGeometry x="1710.0000000000016" y="320.0000000000366" width="20" height="520" as="geometry" />
        </mxCell>
        <mxCell id="yzSinO0hrtpDDesFTwgu-350" value="" style="strokeColor=#DEEDFF;fillColor=#D4E1FF" vertex="1" parent="1">
          <mxGeometry x="1730.0000000000018" y="320.0000000000366" width="20" height="520" as="geometry" />
        </mxCell>
        <mxCell id="yzSinO0hrtpDDesFTwgu-351" value="18.03.24" style="fillColor=#23445D;strokeColor=#FFFFFF;strokeWidth=2;fontColor=#FFFFFF;fontStyle=1" vertex="1" parent="1">
          <mxGeometry x="1610.0000000000018" y="280.0000000000001" width="140" height="20" as="geometry" />
        </mxCell>
        <mxCell id="yzSinO0hrtpDDesFTwgu-352" value="M" style="fillColor=#23445D;strokeColor=#FFFFFF;strokeWidth=2;fontColor=#FFFFFF;fontStyle=1" vertex="1" parent="1">
          <mxGeometry x="1610.0000000000018" y="300.0000000000001" width="20" height="20" as="geometry" />
        </mxCell>
        <mxCell id="yzSinO0hrtpDDesFTwgu-353" value="T" style="fillColor=#23445D;strokeColor=#FFFFFF;strokeWidth=2;fontColor=#FFFFFF;fontStyle=1" vertex="1" parent="1">
          <mxGeometry x="1630.0000000000018" y="300.0000000000001" width="20" height="20" as="geometry" />
        </mxCell>
        <mxCell id="yzSinO0hrtpDDesFTwgu-354" value="W" style="fillColor=#23445D;strokeColor=#FFFFFF;strokeWidth=2;fontColor=#FFFFFF;fontStyle=1" vertex="1" parent="1">
          <mxGeometry x="1650.0000000000018" y="300.0000000000001" width="20" height="20" as="geometry" />
        </mxCell>
        <mxCell id="yzSinO0hrtpDDesFTwgu-355" value="T" style="fillColor=#23445D;strokeColor=#FFFFFF;strokeWidth=2;fontColor=#FFFFFF;fontStyle=1" vertex="1" parent="1">
          <mxGeometry x="1670.0000000000018" y="300.0000000000001" width="20" height="20" as="geometry" />
        </mxCell>
        <mxCell id="yzSinO0hrtpDDesFTwgu-356" value="F" style="fillColor=#23445D;strokeColor=#FFFFFF;strokeWidth=2;fontColor=#FFFFFF;fontStyle=1" vertex="1" parent="1">
          <mxGeometry x="1690.0000000000016" y="300.0000000000001" width="20" height="20" as="geometry" />
        </mxCell>
        <mxCell id="yzSinO0hrtpDDesFTwgu-357" value="S" style="fillColor=#23445D;strokeColor=#FFFFFF;strokeWidth=2;fontColor=#FFFFFF;fontStyle=1" vertex="1" parent="1">
          <mxGeometry x="1710.0000000000016" y="300.0000000000001" width="20" height="20" as="geometry" />
        </mxCell>
        <mxCell id="yzSinO0hrtpDDesFTwgu-358" value="S" style="fillColor=#23445D;strokeColor=#FFFFFF;strokeWidth=2;fontColor=#FFFFFF;fontStyle=1" vertex="1" parent="1">
          <mxGeometry x="1730.0000000000016" y="300.0000000000001" width="20" height="20" as="geometry" />
        </mxCell>
        <mxCell id="yzSinO0hrtpDDesFTwgu-278" value="" style="strokeColor=#DEEDFF" vertex="1" parent="1">
          <mxGeometry x="1050.0000000000016" y="320.00000000002206" width="20" height="520" as="geometry" />
        </mxCell>
        <mxCell id="yzSinO0hrtpDDesFTwgu-279" value="" style="strokeColor=#DEEDFF" vertex="1" parent="1">
          <mxGeometry x="1070.0000000000016" y="320.00000000002206" width="20" height="520" as="geometry" />
        </mxCell>
        <mxCell id="yzSinO0hrtpDDesFTwgu-280" value="" style="strokeColor=#DEEDFF" vertex="1" parent="1">
          <mxGeometry x="1090.0000000000016" y="320.00000000003297" width="20" height="520" as="geometry" />
        </mxCell>
        <mxCell id="yzSinO0hrtpDDesFTwgu-281" value="" style="strokeColor=#DEEDFF" vertex="1" parent="1">
          <mxGeometry x="1110.0000000000016" y="320.0000000000366" width="20" height="520" as="geometry" />
        </mxCell>
        <mxCell id="yzSinO0hrtpDDesFTwgu-282" value="" style="strokeColor=#DEEDFF" vertex="1" parent="1">
          <mxGeometry x="1130.0000000000016" y="320.0000000000366" width="20" height="520" as="geometry" />
        </mxCell>
        <mxCell id="yzSinO0hrtpDDesFTwgu-283" value="" style="strokeColor=#DEEDFF;fillColor=#D4E1FF" vertex="1" parent="1">
          <mxGeometry x="1150.0000000000016" y="320.0000000000366" width="20" height="520" as="geometry" />
        </mxCell>
        <mxCell id="yzSinO0hrtpDDesFTwgu-284" value="" style="strokeColor=#DEEDFF;fillColor=#D4E1FF" vertex="1" parent="1">
          <mxGeometry x="1170.0000000000018" y="320.0000000000366" width="20" height="520" as="geometry" />
        </mxCell>
        <mxCell id="yzSinO0hrtpDDesFTwgu-285" value="19.02.24" style="fillColor=#23445D;strokeColor=#FFFFFF;strokeWidth=2;fontColor=#FFFFFF;fontStyle=1" vertex="1" parent="1">
          <mxGeometry x="1050.0000000000018" y="280.0000000000001" width="140" height="20" as="geometry" />
        </mxCell>
        <mxCell id="yzSinO0hrtpDDesFTwgu-286" value="M" style="fillColor=#23445D;strokeColor=#FFFFFF;strokeWidth=2;fontColor=#FFFFFF;fontStyle=1" vertex="1" parent="1">
          <mxGeometry x="1050.0000000000018" y="300.0000000000001" width="20" height="20" as="geometry" />
        </mxCell>
        <mxCell id="yzSinO0hrtpDDesFTwgu-287" value="T" style="fillColor=#23445D;strokeColor=#FFFFFF;strokeWidth=2;fontColor=#FFFFFF;fontStyle=1" vertex="1" parent="1">
          <mxGeometry x="1070.0000000000018" y="300.0000000000001" width="20" height="20" as="geometry" />
        </mxCell>
        <mxCell id="yzSinO0hrtpDDesFTwgu-288" value="W" style="fillColor=#23445D;strokeColor=#FFFFFF;strokeWidth=2;fontColor=#FFFFFF;fontStyle=1" vertex="1" parent="1">
          <mxGeometry x="1090.0000000000018" y="300.0000000000001" width="20" height="20" as="geometry" />
        </mxCell>
        <mxCell id="yzSinO0hrtpDDesFTwgu-289" value="T" style="fillColor=#23445D;strokeColor=#FFFFFF;strokeWidth=2;fontColor=#FFFFFF;fontStyle=1" vertex="1" parent="1">
          <mxGeometry x="1110.0000000000018" y="300.0000000000001" width="20" height="20" as="geometry" />
        </mxCell>
        <mxCell id="yzSinO0hrtpDDesFTwgu-290" value="F" style="fillColor=#23445D;strokeColor=#FFFFFF;strokeWidth=2;fontColor=#FFFFFF;fontStyle=1" vertex="1" parent="1">
          <mxGeometry x="1130.0000000000016" y="300.0000000000001" width="20" height="20" as="geometry" />
        </mxCell>
        <mxCell id="yzSinO0hrtpDDesFTwgu-291" value="S" style="fillColor=#23445D;strokeColor=#FFFFFF;strokeWidth=2;fontColor=#FFFFFF;fontStyle=1" vertex="1" parent="1">
          <mxGeometry x="1150.0000000000016" y="300.0000000000001" width="20" height="20" as="geometry" />
        </mxCell>
        <mxCell id="yzSinO0hrtpDDesFTwgu-292" value="S" style="fillColor=#23445D;strokeColor=#FFFFFF;strokeWidth=2;fontColor=#FFFFFF;fontStyle=1" vertex="1" parent="1">
          <mxGeometry x="1170.0000000000016" y="300.0000000000001" width="20" height="20" as="geometry" />
        </mxCell>
        <mxCell id="yzSinO0hrtpDDesFTwgu-293" value="" style="shape=mxgraph.arrows.bent_right_arrow;fillColor=#AE4132;strokeColor=none;strokeWidth=2;direction=south" vertex="1" parent="1">
          <mxGeometry x="1510.000000000002" y="450.0000000000016" width="10.000000000000341" height="9.99999999999983" as="geometry" />
        </mxCell>
        <mxCell id="yzSinO0hrtpDDesFTwgu-294" value="" style="strokeColor=#DEEDFF" vertex="1" parent="1">
          <mxGeometry x="1190.0000000000016" y="320.00000000002206" width="20" height="520" as="geometry" />
        </mxCell>
        <mxCell id="yzSinO0hrtpDDesFTwgu-295" value="" style="strokeColor=#DEEDFF" vertex="1" parent="1">
          <mxGeometry x="1210.0000000000016" y="320.00000000002206" width="20" height="520" as="geometry" />
        </mxCell>
        <mxCell id="yzSinO0hrtpDDesFTwgu-296" value="" style="strokeColor=#DEEDFF" vertex="1" parent="1">
          <mxGeometry x="1230.0000000000016" y="320.00000000003297" width="20" height="520" as="geometry" />
        </mxCell>
        <mxCell id="yzSinO0hrtpDDesFTwgu-297" value="" style="strokeColor=#DEEDFF" vertex="1" parent="1">
          <mxGeometry x="1250.0000000000016" y="320.0000000000366" width="20" height="520" as="geometry" />
        </mxCell>
        <mxCell id="yzSinO0hrtpDDesFTwgu-298" value="" style="strokeColor=#DEEDFF" vertex="1" parent="1">
          <mxGeometry x="1270.0000000000016" y="320.0000000000366" width="20" height="520" as="geometry" />
        </mxCell>
        <mxCell id="yzSinO0hrtpDDesFTwgu-299" value="" style="strokeColor=#DEEDFF;fillColor=#D4E1FF" vertex="1" parent="1">
          <mxGeometry x="1290.0000000000016" y="320.0000000000366" width="20" height="520" as="geometry" />
        </mxCell>
        <mxCell id="yzSinO0hrtpDDesFTwgu-300" value="" style="strokeColor=#DEEDFF;fillColor=#D4E1FF" vertex="1" parent="1">
          <mxGeometry x="1310.0000000000018" y="320.0000000000366" width="20" height="520" as="geometry" />
        </mxCell>
        <mxCell id="yzSinO0hrtpDDesFTwgu-301" value="26.02.24" style="fillColor=#23445D;strokeColor=#FFFFFF;strokeWidth=2;fontColor=#FFFFFF;fontStyle=1" vertex="1" parent="1">
          <mxGeometry x="1190.0000000000018" y="280.0000000000001" width="140" height="20" as="geometry" />
        </mxCell>
        <mxCell id="yzSinO0hrtpDDesFTwgu-302" value="M" style="fillColor=#23445D;strokeColor=#FFFFFF;strokeWidth=2;fontColor=#FFFFFF;fontStyle=1" vertex="1" parent="1">
          <mxGeometry x="1190.0000000000018" y="300.0000000000001" width="20" height="20" as="geometry" />
        </mxCell>
        <mxCell id="yzSinO0hrtpDDesFTwgu-303" value="T" style="fillColor=#23445D;strokeColor=#FFFFFF;strokeWidth=2;fontColor=#FFFFFF;fontStyle=1" vertex="1" parent="1">
          <mxGeometry x="1210.0000000000018" y="300.0000000000001" width="20" height="20" as="geometry" />
        </mxCell>
        <mxCell id="yzSinO0hrtpDDesFTwgu-304" value="W" style="fillColor=#23445D;strokeColor=#FFFFFF;strokeWidth=2;fontColor=#FFFFFF;fontStyle=1" vertex="1" parent="1">
          <mxGeometry x="1230.0000000000018" y="300.0000000000001" width="20" height="20" as="geometry" />
        </mxCell>
        <mxCell id="yzSinO0hrtpDDesFTwgu-305" value="T" style="fillColor=#23445D;strokeColor=#FFFFFF;strokeWidth=2;fontColor=#FFFFFF;fontStyle=1" vertex="1" parent="1">
          <mxGeometry x="1250.0000000000018" y="300.0000000000001" width="20" height="20" as="geometry" />
        </mxCell>
        <mxCell id="yzSinO0hrtpDDesFTwgu-306" value="F" style="fillColor=#23445D;strokeColor=#FFFFFF;strokeWidth=2;fontColor=#FFFFFF;fontStyle=1" vertex="1" parent="1">
          <mxGeometry x="1270.0000000000016" y="300.0000000000001" width="20" height="20" as="geometry" />
        </mxCell>
        <mxCell id="yzSinO0hrtpDDesFTwgu-307" value="S" style="fillColor=#23445D;strokeColor=#FFFFFF;strokeWidth=2;fontColor=#FFFFFF;fontStyle=1" vertex="1" parent="1">
          <mxGeometry x="1290.0000000000016" y="300.0000000000001" width="20" height="20" as="geometry" />
        </mxCell>
        <mxCell id="yzSinO0hrtpDDesFTwgu-308" value="S" style="fillColor=#23445D;strokeColor=#FFFFFF;strokeWidth=2;fontColor=#FFFFFF;fontStyle=1" vertex="1" parent="1">
          <mxGeometry x="1310.0000000000016" y="300.0000000000001" width="20" height="20" as="geometry" />
        </mxCell>
        <mxCell id="yzSinO0hrtpDDesFTwgu-309" value="" style="shape=mxgraph.arrows.bent_right_arrow;fillColor=#AE4132;strokeColor=none;strokeWidth=2;direction=south" vertex="1" parent="1">
          <mxGeometry x="1510.000000000002" y="450.0000000000016" width="10.000000000000341" height="9.99999999999983" as="geometry" />
        </mxCell>
        <mxCell id="yzSinO0hrtpDDesFTwgu-310" value="" style="strokeColor=#DEEDFF" vertex="1" parent="1">
          <mxGeometry x="1330.0000000000016" y="320.00000000002206" width="20" height="520" as="geometry" />
        </mxCell>
        <mxCell id="yzSinO0hrtpDDesFTwgu-311" value="" style="strokeColor=#DEEDFF" vertex="1" parent="1">
          <mxGeometry x="1350.0000000000016" y="320.00000000002206" width="20" height="520" as="geometry" />
        </mxCell>
        <mxCell id="yzSinO0hrtpDDesFTwgu-312" value="" style="strokeColor=#DEEDFF" vertex="1" parent="1">
          <mxGeometry x="1370.0000000000016" y="320.00000000003297" width="20" height="520" as="geometry" />
        </mxCell>
        <mxCell id="yzSinO0hrtpDDesFTwgu-313" value="" style="strokeColor=#DEEDFF" vertex="1" parent="1">
          <mxGeometry x="1390.0000000000016" y="320.0000000000366" width="20" height="520" as="geometry" />
        </mxCell>
        <mxCell id="yzSinO0hrtpDDesFTwgu-314" value="" style="strokeColor=#DEEDFF" vertex="1" parent="1">
          <mxGeometry x="1410.0000000000016" y="320.0000000000366" width="20" height="520" as="geometry" />
        </mxCell>
        <mxCell id="yzSinO0hrtpDDesFTwgu-315" value="" style="strokeColor=#DEEDFF;fillColor=#D4E1FF" vertex="1" parent="1">
          <mxGeometry x="1430.0000000000016" y="320.0000000000366" width="20" height="520" as="geometry" />
        </mxCell>
        <mxCell id="yzSinO0hrtpDDesFTwgu-316" value="" style="strokeColor=#DEEDFF;fillColor=#D4E1FF" vertex="1" parent="1">
          <mxGeometry x="1450.0000000000018" y="320.0000000000366" width="20" height="520" as="geometry" />
        </mxCell>
        <mxCell id="yzSinO0hrtpDDesFTwgu-317" value="4.03.24" style="fillColor=#23445D;strokeColor=#FFFFFF;strokeWidth=2;fontColor=#FFFFFF;fontStyle=1" vertex="1" parent="1">
          <mxGeometry x="1330.0000000000018" y="280.0000000000001" width="140" height="20" as="geometry" />
        </mxCell>
        <mxCell id="yzSinO0hrtpDDesFTwgu-318" value="M" style="fillColor=#23445D;strokeColor=#FFFFFF;strokeWidth=2;fontColor=#FFFFFF;fontStyle=1" vertex="1" parent="1">
          <mxGeometry x="1330.0000000000018" y="300.0000000000001" width="20" height="20" as="geometry" />
        </mxCell>
        <mxCell id="yzSinO0hrtpDDesFTwgu-319" value="T" style="fillColor=#23445D;strokeColor=#FFFFFF;strokeWidth=2;fontColor=#FFFFFF;fontStyle=1" vertex="1" parent="1">
          <mxGeometry x="1350.0000000000018" y="300.0000000000001" width="20" height="20" as="geometry" />
        </mxCell>
        <mxCell id="yzSinO0hrtpDDesFTwgu-320" value="W" style="fillColor=#23445D;strokeColor=#FFFFFF;strokeWidth=2;fontColor=#FFFFFF;fontStyle=1" vertex="1" parent="1">
          <mxGeometry x="1370.0000000000018" y="300.0000000000001" width="20" height="20" as="geometry" />
        </mxCell>
        <mxCell id="yzSinO0hrtpDDesFTwgu-321" value="T" style="fillColor=#23445D;strokeColor=#FFFFFF;strokeWidth=2;fontColor=#FFFFFF;fontStyle=1" vertex="1" parent="1">
          <mxGeometry x="1390.0000000000018" y="300.0000000000001" width="20" height="20" as="geometry" />
        </mxCell>
        <mxCell id="yzSinO0hrtpDDesFTwgu-322" value="F" style="fillColor=#23445D;strokeColor=#FFFFFF;strokeWidth=2;fontColor=#FFFFFF;fontStyle=1" vertex="1" parent="1">
          <mxGeometry x="1410.0000000000016" y="300.0000000000001" width="20" height="20" as="geometry" />
        </mxCell>
        <mxCell id="yzSinO0hrtpDDesFTwgu-323" value="S" style="fillColor=#23445D;strokeColor=#FFFFFF;strokeWidth=2;fontColor=#FFFFFF;fontStyle=1" vertex="1" parent="1">
          <mxGeometry x="1430.0000000000016" y="300.0000000000001" width="20" height="20" as="geometry" />
        </mxCell>
        <mxCell id="yzSinO0hrtpDDesFTwgu-324" value="S" style="fillColor=#23445D;strokeColor=#FFFFFF;strokeWidth=2;fontColor=#FFFFFF;fontStyle=1" vertex="1" parent="1">
          <mxGeometry x="1450.0000000000016" y="300.0000000000001" width="20" height="20" as="geometry" />
        </mxCell>
        <mxCell id="yzSinO0hrtpDDesFTwgu-325" value="" style="shape=mxgraph.arrows.bent_right_arrow;fillColor=#AE4132;strokeColor=none;strokeWidth=2;direction=south" vertex="1" parent="1">
          <mxGeometry x="1350.000000000002" y="410.0000000000016" width="10.000000000000341" height="9.99999999999983" as="geometry" />
        </mxCell>
        <mxCell id="yzSinO0hrtpDDesFTwgu-326" value="" style="strokeColor=#DEEDFF" vertex="1" parent="1">
          <mxGeometry x="1470.0000000000016" y="320.00000000002206" width="20" height="520" as="geometry" />
        </mxCell>
        <mxCell id="yzSinO0hrtpDDesFTwgu-327" value="" style="strokeColor=#DEEDFF" vertex="1" parent="1">
          <mxGeometry x="1490.0000000000016" y="320.00000000002206" width="20" height="520" as="geometry" />
        </mxCell>
        <mxCell id="yzSinO0hrtpDDesFTwgu-328" value="" style="strokeColor=#DEEDFF" vertex="1" parent="1">
          <mxGeometry x="1510.0000000000016" y="320.00000000003297" width="20" height="520" as="geometry" />
        </mxCell>
        <mxCell id="yzSinO0hrtpDDesFTwgu-329" value="" style="strokeColor=#DEEDFF" vertex="1" parent="1">
          <mxGeometry x="1530.0000000000016" y="320.0000000000366" width="20" height="520" as="geometry" />
        </mxCell>
        <mxCell id="yzSinO0hrtpDDesFTwgu-330" value="" style="strokeColor=#DEEDFF" vertex="1" parent="1">
          <mxGeometry x="1550.0000000000016" y="320.0000000000366" width="20" height="520" as="geometry" />
        </mxCell>
        <mxCell id="yzSinO0hrtpDDesFTwgu-331" value="" style="strokeColor=#DEEDFF;fillColor=#D4E1FF" vertex="1" parent="1">
          <mxGeometry x="1570.0000000000016" y="320.0000000000366" width="20" height="520" as="geometry" />
        </mxCell>
        <mxCell id="yzSinO0hrtpDDesFTwgu-332" value="" style="strokeColor=#DEEDFF;fillColor=#D4E1FF" vertex="1" parent="1">
          <mxGeometry x="1590.0000000000018" y="320.0000000000366" width="20" height="520" as="geometry" />
        </mxCell>
        <mxCell id="yzSinO0hrtpDDesFTwgu-333" value="11.03.24" style="fillColor=#23445D;strokeColor=#FFFFFF;strokeWidth=2;fontColor=#FFFFFF;fontStyle=1" vertex="1" parent="1">
          <mxGeometry x="1470.0000000000018" y="280.0000000000001" width="140" height="20" as="geometry" />
        </mxCell>
        <mxCell id="yzSinO0hrtpDDesFTwgu-334" value="M" style="fillColor=#23445D;strokeColor=#FFFFFF;strokeWidth=2;fontColor=#FFFFFF;fontStyle=1" vertex="1" parent="1">
          <mxGeometry x="1470" y="300" width="20" height="20" as="geometry" />
        </mxCell>
        <mxCell id="yzSinO0hrtpDDesFTwgu-335" value="T" style="fillColor=#23445D;strokeColor=#FFFFFF;strokeWidth=2;fontColor=#FFFFFF;fontStyle=1" vertex="1" parent="1">
          <mxGeometry x="1490.0000000000018" y="300.0000000000001" width="20" height="20" as="geometry" />
        </mxCell>
        <mxCell id="yzSinO0hrtpDDesFTwgu-336" value="W" style="fillColor=#23445D;strokeColor=#FFFFFF;strokeWidth=2;fontColor=#FFFFFF;fontStyle=1" vertex="1" parent="1">
          <mxGeometry x="1510.0000000000018" y="300.0000000000001" width="20" height="20" as="geometry" />
        </mxCell>
        <mxCell id="yzSinO0hrtpDDesFTwgu-337" value="T" style="fillColor=#23445D;strokeColor=#FFFFFF;strokeWidth=2;fontColor=#FFFFFF;fontStyle=1" vertex="1" parent="1">
          <mxGeometry x="1530.0000000000018" y="300.0000000000001" width="20" height="20" as="geometry" />
        </mxCell>
        <mxCell id="yzSinO0hrtpDDesFTwgu-338" value="F" style="fillColor=#23445D;strokeColor=#FFFFFF;strokeWidth=2;fontColor=#FFFFFF;fontStyle=1" vertex="1" parent="1">
          <mxGeometry x="1550.0000000000016" y="300.0000000000001" width="20" height="20" as="geometry" />
        </mxCell>
        <mxCell id="yzSinO0hrtpDDesFTwgu-339" value="S" style="fillColor=#23445D;strokeColor=#FFFFFF;strokeWidth=2;fontColor=#FFFFFF;fontStyle=1" vertex="1" parent="1">
          <mxGeometry x="1570.0000000000016" y="300.0000000000001" width="20" height="20" as="geometry" />
        </mxCell>
        <mxCell id="yzSinO0hrtpDDesFTwgu-340" value="S" style="fillColor=#23445D;strokeColor=#FFFFFF;strokeWidth=2;fontColor=#FFFFFF;fontStyle=1" vertex="1" parent="1">
          <mxGeometry x="1590.0000000000016" y="300.0000000000001" width="20" height="20" as="geometry" />
        </mxCell>
        <mxCell id="yzSinO0hrtpDDesFTwgu-341" value="" style="shape=mxgraph.arrows.bent_right_arrow;fillColor=#AE4132;strokeColor=none;strokeWidth=2;direction=south" vertex="1" parent="1">
          <mxGeometry x="1450.000000000002" y="430.0000000000016" width="10.000000000000341" height="9.99999999999983" as="geometry" />
        </mxCell>
        <mxCell id="63" value="1" style="strokeColor=#DEEDFF;fillColor=#ADC3D9" parent="1" vertex="1">
          <mxGeometry x="70" y="100" width="40" height="20" as="geometry" />
        </mxCell>
        <mxCell id="64" value="Повне виконання проекту" style="align=left;strokeColor=#DEEDFF;fillColor=#ADC3D9" parent="1" vertex="1">
          <mxGeometry x="110" y="100" width="320" height="20" as="geometry" />
        </mxCell>
        <mxCell id="65" value="85 днів" style="strokeColor=#DEEDFF;fillColor=#ADC3D9" parent="1" vertex="1">
          <mxGeometry x="430.0000000000018" y="100" width="80.00000000000028" height="20" as="geometry" />
        </mxCell>
        <mxCell id="66" value="1.01.24" style="strokeColor=#DEEDFF;fillColor=#ADC3D9" parent="1" vertex="1">
          <mxGeometry x="510.00000000000205" y="100" width="80.00000000000028" height="20" as="geometry" />
        </mxCell>
        <mxCell id="67" value="23.03.24" style="strokeColor=#DEEDFF;fillColor=#ADC3D9" parent="1" vertex="1">
          <mxGeometry x="590.0000000000016" y="100.00000000000023" width="80.00000000000028" height="20" as="geometry" />
        </mxCell>
        <mxCell id="68" value="" style="strokeColor=#DEEDFF" parent="1" vertex="1">
          <mxGeometry x="70.00000000000205" y="320.0000000000002" width="20" height="520" as="geometry" />
        </mxCell>
        <mxCell id="69" value="2" style="strokeColor=#DEEDFF;fillColor=#CCE5FF" parent="1" vertex="1">
          <mxGeometry x="70.00000000000023" y="119.99999999999989" width="40" height="20" as="geometry" />
        </mxCell>
        <mxCell id="70" value="Кількість виконавців" style="align=left;strokeColor=#DEEDFF;fillColor=#CCE5FF" parent="1" vertex="1">
          <mxGeometry x="110" y="120" width="320" height="20" as="geometry" />
        </mxCell>
        <mxCell id="71" value="6 днів" style="strokeColor=#DEEDFF;fillColor=#CCE5FF" parent="1" vertex="1">
          <mxGeometry x="430.00000000000205" y="119.99999999999983" width="80.00000000000028" height="20" as="geometry" />
        </mxCell>
        <mxCell id="72" value="1.01.24" style="strokeColor=#DEEDFF;fillColor=#CCE5FF" parent="1" vertex="1">
          <mxGeometry x="510.0000000000023" y="119.99999999999983" width="80.00000000000028" height="20" as="geometry" />
        </mxCell>
        <mxCell id="73" value="6.01.24" style="strokeColor=#DEEDFF;fillColor=#CCE5FF" parent="1" vertex="1">
          <mxGeometry x="590.0000000000018" y="120.00000000000011" width="80.00000000000028" height="20" as="geometry" />
        </mxCell>
        <mxCell id="74" value="3" style="strokeColor=#DEEDFF" parent="1" vertex="1">
          <mxGeometry x="70.00000000000023" y="139.99999999999977" width="40" height="20" as="geometry" />
        </mxCell>
        <mxCell id="75" value="Формування вимог" style="align=left;strokeColor=#DEEDFF" parent="1" vertex="1">
          <mxGeometry x="110.00000000000023" y="139.99999999999977" width="319.9999999999997" height="20.000000000000014" as="geometry" />
        </mxCell>
        <mxCell id="76" value="8 днів" style="strokeColor=#DEEDFF" parent="1" vertex="1">
          <mxGeometry x="430.00000000000205" y="139.99999999999972" width="80.00000000000028" height="20" as="geometry" />
        </mxCell>
        <mxCell id="77" value="7.01.24" style="strokeColor=#DEEDFF" parent="1" vertex="1">
          <mxGeometry x="510.0000000000023" y="139.99999999999972" width="80.00000000000028" height="20" as="geometry" />
        </mxCell>
        <mxCell id="78" value="14.01.24" style="strokeColor=#DEEDFF" parent="1" vertex="1">
          <mxGeometry x="590.0000000000018" y="140" width="80.00000000000028" height="20" as="geometry" />
        </mxCell>
        <mxCell id="79" value="4" style="strokeColor=#DEEDFF" parent="1" vertex="1">
          <mxGeometry x="70" y="160.00000000000017" width="40" height="20" as="geometry" />
        </mxCell>
        <mxCell id="80" value="Проєктування" style="align=left;strokeColor=#DEEDFF" parent="1" vertex="1">
          <mxGeometry x="110" y="160.00000000000017" width="320" height="20" as="geometry" />
        </mxCell>
        <mxCell id="81" value="20 днів" style="strokeColor=#DEEDFF" parent="1" vertex="1">
          <mxGeometry x="430.0000000000018" y="160.0000000000001" width="80.00000000000028" height="20" as="geometry" />
        </mxCell>
        <mxCell id="82" value="15.01.24" style="strokeColor=#DEEDFF" parent="1" vertex="1">
          <mxGeometry x="510.00000000000205" y="160.0000000000001" width="80.00000000000028" height="20" as="geometry" />
        </mxCell>
        <mxCell id="83" value="3.02.24" style="strokeColor=#DEEDFF" parent="1" vertex="1">
          <mxGeometry x="590.0000000000014" y="160.0000000000004" width="80.00000000000028" height="20" as="geometry" />
        </mxCell>
        <mxCell id="84" value="5" style="strokeColor=#DEEDFF" parent="1" vertex="1">
          <mxGeometry x="69.99999999999989" y="180.00000000000017" width="40" height="20" as="geometry" />
        </mxCell>
        <mxCell id="85" value="Реалізация" style="align=left;strokeColor=#DEEDFF" parent="1" vertex="1">
          <mxGeometry x="109.99999999999989" y="180.00000000000017" width="320.0000000000001" height="20" as="geometry" />
        </mxCell>
        <mxCell id="86" value="30 днів" style="strokeColor=#DEEDFF" parent="1" vertex="1">
          <mxGeometry x="430.0000000000016" y="180.0000000000001" width="80.00000000000028" height="20" as="geometry" />
        </mxCell>
        <mxCell id="87" value="4.02.24" style="strokeColor=#DEEDFF" parent="1" vertex="1">
          <mxGeometry x="510.0000000000018" y="180.0000000000001" width="80.00000000000028" height="20" as="geometry" />
        </mxCell>
        <mxCell id="88" value="4.03.24" style="strokeColor=#DEEDFF" parent="1" vertex="1">
          <mxGeometry x="590.0000000000014" y="180.0000000000004" width="80.00000000000028" height="20" as="geometry" />
        </mxCell>
        <mxCell id="89" value="6" style="strokeColor=#DEEDFF" parent="1" vertex="1">
          <mxGeometry x="69.99999999999989" y="200.00000000000045" width="40" height="20" as="geometry" />
        </mxCell>
        <mxCell id="90" value="Тестування" style="align=left;strokeColor=#DEEDFF" parent="1" vertex="1">
          <mxGeometry x="109.99999999999989" y="200.00000000000045" width="320.0000000000001" height="20" as="geometry" />
        </mxCell>
        <mxCell id="91" value="5 днів" style="strokeColor=#DEEDFF" parent="1" vertex="1">
          <mxGeometry x="430.0000000000016" y="200.00000000000034" width="80.00000000000028" height="20" as="geometry" />
        </mxCell>
        <mxCell id="92" value="5.03.24" style="strokeColor=#DEEDFF" parent="1" vertex="1">
          <mxGeometry x="510.0000000000018" y="200.00000000000034" width="80.00000000000028" height="20" as="geometry" />
        </mxCell>
        <mxCell id="93" value="9.03.24" style="strokeColor=#DEEDFF" parent="1" vertex="1">
          <mxGeometry x="590.0000000000014" y="200.00000000000068" width="80.00000000000028" height="20" as="geometry" />
        </mxCell>
        <mxCell id="94" value="7" style="strokeColor=#DEEDFF" parent="1" vertex="1">
          <mxGeometry x="70.00000000000068" y="220.00000000000068" width="40" height="20" as="geometry" />
        </mxCell>
        <mxCell id="95" value="Впровадження" style="align=left;strokeColor=#DEEDFF" parent="1" vertex="1">
          <mxGeometry x="110.00000000000068" y="220.00000000000068" width="319.9999999999994" height="20" as="geometry" />
        </mxCell>
        <mxCell id="96" value="3 дня" style="strokeColor=#DEEDFF" parent="1" vertex="1">
          <mxGeometry x="430.0000000000023" y="220.00000000000068" width="80.00000000000028" height="20" as="geometry" />
        </mxCell>
        <mxCell id="97" value="10.03.24" style="strokeColor=#DEEDFF" parent="1" vertex="1">
          <mxGeometry x="510.00000000000273" y="220.00000000000068" width="80.00000000000028" height="20" as="geometry" />
        </mxCell>
        <mxCell id="98" value="12.03.24" style="strokeColor=#DEEDFF" parent="1" vertex="1">
          <mxGeometry x="590.0000000000023" y="220.0000000000009" width="80.00000000000028" height="20" as="geometry" />
        </mxCell>
        <mxCell id="99" value="8" style="strokeColor=#DEEDFF" parent="1" vertex="1">
          <mxGeometry x="70.00000000000068" y="240.00000000000057" width="40" height="20" as="geometry" />
        </mxCell>
        <mxCell id="100" value="Експлуатація та супровід" style="align=left;strokeColor=#DEEDFF" parent="1" vertex="1">
          <mxGeometry x="110.00000000000068" y="240.00000000000057" width="319.9999999999994" height="20" as="geometry" />
        </mxCell>
        <mxCell id="101" value="11 днів" style="strokeColor=#DEEDFF" parent="1" vertex="1">
          <mxGeometry x="430.0000000000023" y="240.00000000000057" width="80.00000000000028" height="20" as="geometry" />
        </mxCell>
        <mxCell id="102" value="13.03.24" style="strokeColor=#DEEDFF" parent="1" vertex="1">
          <mxGeometry x="510.00000000000273" y="240.00000000000057" width="80.00000000000028" height="20" as="geometry" />
        </mxCell>
        <mxCell id="103" value="23.03.24" style="strokeColor=#DEEDFF" parent="1" vertex="1">
          <mxGeometry x="590.0000000000023" y="240.0000000000008" width="80.00000000000028" height="20" as="geometry" />
        </mxCell>
        <mxCell id="194" value="" style="strokeColor=#DEEDFF" parent="1" vertex="1">
          <mxGeometry x="90.00000000000205" y="320.00000000000387" width="20" height="520" as="geometry" />
        </mxCell>
        <mxCell id="195" value="" style="strokeColor=#DEEDFF" parent="1" vertex="1">
          <mxGeometry x="110.00000000000205" y="320.00000000000387" width="20" height="520" as="geometry" />
        </mxCell>
        <mxCell id="196" value="" style="strokeColor=#DEEDFF" parent="1" vertex="1">
          <mxGeometry x="130.00000000000205" y="320.00000000000387" width="20" height="520" as="geometry" />
        </mxCell>
        <mxCell id="197" value="" style="strokeColor=#DEEDFF" parent="1" vertex="1">
          <mxGeometry x="150.00000000000205" y="320.00000000000387" width="20" height="520" as="geometry" />
        </mxCell>
        <mxCell id="198" value="" style="strokeColor=#DEEDFF;fillColor=#D4E1FF" parent="1" vertex="1">
          <mxGeometry x="170.00000000000205" y="320.0000000000075" width="20" height="520" as="geometry" />
        </mxCell>
        <mxCell id="199" value="" style="strokeColor=#DEEDFF;fillColor=#D4E1FF" parent="1" vertex="1">
          <mxGeometry x="190.00000000000205" y="320.0000000000075" width="20" height="520" as="geometry" />
        </mxCell>
        <mxCell id="200" value="" style="strokeColor=#DEEDFF" parent="1" vertex="1">
          <mxGeometry x="210.00000000000205" y="320.0000000000075" width="20" height="520" as="geometry" />
        </mxCell>
        <mxCell id="201" value="" style="strokeColor=#DEEDFF" parent="1" vertex="1">
          <mxGeometry x="230.0000000000016" y="320.0000000000075" width="20" height="520" as="geometry" />
        </mxCell>
        <mxCell id="202" value="" style="strokeColor=#DEEDFF" parent="1" vertex="1">
          <mxGeometry x="250.0000000000016" y="320.00000000001114" width="20" height="520" as="geometry" />
        </mxCell>
        <mxCell id="203" value="" style="strokeColor=#DEEDFF" parent="1" vertex="1">
          <mxGeometry x="270.0000000000016" y="320.00000000001114" width="20" height="520" as="geometry" />
        </mxCell>
        <mxCell id="204" value="" style="strokeColor=#DEEDFF" parent="1" vertex="1">
          <mxGeometry x="290.0000000000016" y="320.00000000001114" width="20" height="520" as="geometry" />
        </mxCell>
        <mxCell id="205" value="" style="strokeColor=#DEEDFF;fillColor=#D4E1FF" parent="1" vertex="1">
          <mxGeometry x="310.0000000000018" y="320.00000000001114" width="20" height="520" as="geometry" />
        </mxCell>
        <mxCell id="206" value="" style="strokeColor=#DEEDFF;fillColor=#D4E1FF" parent="1" vertex="1">
          <mxGeometry x="330.0000000000018" y="320.0000000000148" width="20" height="520" as="geometry" />
        </mxCell>
        <mxCell id="207" value="" style="strokeColor=#DEEDFF" parent="1" vertex="1">
          <mxGeometry x="350.0000000000018" y="320.0000000000148" width="20" height="520" as="geometry" />
        </mxCell>
        <mxCell id="208" value="" style="strokeColor=#DEEDFF" parent="1" vertex="1">
          <mxGeometry x="370.0000000000018" y="320.0000000000148" width="20" height="520" as="geometry" />
        </mxCell>
        <mxCell id="209" value="" style="strokeColor=#DEEDFF" parent="1" vertex="1">
          <mxGeometry x="390.0000000000018" y="320.0000000000002" width="20" height="520" as="geometry" />
        </mxCell>
        <mxCell id="210" value="" style="strokeColor=#DEEDFF" parent="1" vertex="1">
          <mxGeometry x="410.0000000000018" y="320.00000000000387" width="20" height="520" as="geometry" />
        </mxCell>
        <mxCell id="211" value="" style="strokeColor=#DEEDFF" parent="1" vertex="1">
          <mxGeometry x="430.0000000000018" y="320.00000000000387" width="20" height="520" as="geometry" />
        </mxCell>
        <mxCell id="212" value="" style="strokeColor=#DEEDFF;fillColor=#D4E1FF" parent="1" vertex="1">
          <mxGeometry x="450.0000000000018" y="320.00000000000387" width="20" height="520" as="geometry" />
        </mxCell>
        <mxCell id="213" value="" style="strokeColor=#DEEDFF;fillColor=#D4E1FF" parent="1" vertex="1">
          <mxGeometry x="470.0000000000018" y="320.0000000000148" width="20" height="520" as="geometry" />
        </mxCell>
        <mxCell id="214" value="" style="strokeColor=#DEEDFF" parent="1" vertex="1">
          <mxGeometry x="490.0000000000018" y="320.0000000000184" width="20" height="520" as="geometry" />
        </mxCell>
        <mxCell id="215" value="" style="strokeColor=#DEEDFF" parent="1" vertex="1">
          <mxGeometry x="510.0000000000018" y="320.0000000000184" width="20" height="520" as="geometry" />
        </mxCell>
        <mxCell id="216" value="" style="strokeColor=#DEEDFF" parent="1" vertex="1">
          <mxGeometry x="530.0000000000018" y="320.0000000000184" width="20" height="520" as="geometry" />
        </mxCell>
        <mxCell id="217" value="" style="strokeColor=#DEEDFF" parent="1" vertex="1">
          <mxGeometry x="550.000000000002" y="320.0000000000184" width="20" height="520" as="geometry" />
        </mxCell>
        <mxCell id="218" value="" style="strokeColor=#DEEDFF" parent="1" vertex="1">
          <mxGeometry x="570.000000000002" y="320.00000000002206" width="20" height="520" as="geometry" />
        </mxCell>
        <mxCell id="219" value="" style="strokeColor=#DEEDFF;fillColor=#D4E1FF" parent="1" vertex="1">
          <mxGeometry x="590.000000000002" y="320.00000000002206" width="20" height="520" as="geometry" />
        </mxCell>
        <mxCell id="220" value="" style="strokeColor=#DEEDFF;fillColor=#D4E1FF" parent="1" vertex="1">
          <mxGeometry x="610.000000000002" y="320.00000000002206" width="20" height="520" as="geometry" />
        </mxCell>
        <mxCell id="221" value="" style="strokeColor=#DEEDFF" parent="1" vertex="1">
          <mxGeometry x="630.000000000002" y="320.00000000002206" width="20" height="520" as="geometry" />
        </mxCell>
        <mxCell id="222" value="" style="strokeColor=#DEEDFF" parent="1" vertex="1">
          <mxGeometry x="650.000000000002" y="320.0000000000257" width="20" height="520" as="geometry" />
        </mxCell>
        <mxCell id="223" value="" style="strokeColor=#DEEDFF" parent="1" vertex="1">
          <mxGeometry x="670.000000000002" y="320.0000000000257" width="20" height="520" as="geometry" />
        </mxCell>
        <mxCell id="224" value="" style="strokeColor=#DEEDFF" parent="1" vertex="1">
          <mxGeometry x="690.000000000002" y="320.0000000000257" width="20" height="520" as="geometry" />
        </mxCell>
        <mxCell id="225" value="" style="strokeColor=#DEEDFF" parent="1" vertex="1">
          <mxGeometry x="710.0000000000016" y="320.0000000000257" width="20" height="520" as="geometry" />
        </mxCell>
        <mxCell id="226" value="" style="strokeColor=#DEEDFF;fillColor=#D4E1FF" parent="1" vertex="1">
          <mxGeometry x="730.0000000000016" y="320.00000000002933" width="20" height="520" as="geometry" />
        </mxCell>
        <mxCell id="227" value="" style="strokeColor=#DEEDFF;fillColor=#D4E1FF" parent="1" vertex="1">
          <mxGeometry x="750.0000000000016" y="320.00000000002933" width="20" height="520" as="geometry" />
        </mxCell>
        <mxCell id="228" value="" style="strokeColor=#DEEDFF" parent="1" vertex="1">
          <mxGeometry x="770.0000000000016" y="320.00000000002933" width="20" height="520" as="geometry" />
        </mxCell>
        <mxCell id="229" value="" style="strokeColor=#DEEDFF" parent="1" vertex="1">
          <mxGeometry x="790.0000000000016" y="320.00000000002933" width="20" height="520" as="geometry" />
        </mxCell>
        <mxCell id="230" value="" style="strokeColor=#DEEDFF" parent="1" vertex="1">
          <mxGeometry x="810.0000000000016" y="320.00000000003297" width="20" height="520" as="geometry" />
        </mxCell>
        <mxCell id="231" value="" style="strokeColor=#DEEDFF" parent="1" vertex="1">
          <mxGeometry x="830.0000000000016" y="320.00000000003297" width="20" height="520" as="geometry" />
        </mxCell>
        <mxCell id="232" value="" style="strokeColor=#DEEDFF" parent="1" vertex="1">
          <mxGeometry x="850.0000000000016" y="320.00000000003297" width="20" height="520" as="geometry" />
        </mxCell>
        <mxCell id="233" value="" style="strokeColor=#DEEDFF;fillColor=#D4E1FF" parent="1" vertex="1">
          <mxGeometry x="870.0000000000016" y="320.0000000000184" width="20" height="520" as="geometry" />
        </mxCell>
        <mxCell id="234" value="" style="strokeColor=#DEEDFF;fillColor=#D4E1FF" parent="1" vertex="1">
          <mxGeometry x="890.0000000000016" y="320.00000000002206" width="20" height="520" as="geometry" />
        </mxCell>
        <mxCell id="235" value="" style="strokeColor=#DEEDFF" parent="1" vertex="1">
          <mxGeometry x="910.0000000000016" y="320.00000000002206" width="20" height="520" as="geometry" />
        </mxCell>
        <mxCell id="236" value="" style="strokeColor=#DEEDFF" parent="1" vertex="1">
          <mxGeometry x="930.0000000000016" y="320.00000000002206" width="20" height="520" as="geometry" />
        </mxCell>
        <mxCell id="237" value="" style="strokeColor=#DEEDFF" parent="1" vertex="1">
          <mxGeometry x="950.0000000000016" y="320.00000000003297" width="20" height="520" as="geometry" />
        </mxCell>
        <mxCell id="238" value="" style="strokeColor=#DEEDFF" parent="1" vertex="1">
          <mxGeometry x="970.0000000000016" y="320.0000000000366" width="20" height="520" as="geometry" />
        </mxCell>
        <mxCell id="239" value="" style="strokeColor=#DEEDFF" parent="1" vertex="1">
          <mxGeometry x="990.0000000000016" y="320.0000000000366" width="20" height="520" as="geometry" />
        </mxCell>
        <mxCell id="240" value="" style="strokeColor=#DEEDFF;fillColor=#D4E1FF" parent="1" vertex="1">
          <mxGeometry x="1010.0000000000016" y="320.0000000000366" width="20" height="520" as="geometry" />
        </mxCell>
        <mxCell id="241" value="" style="strokeColor=#DEEDFF;fillColor=#D4E1FF" parent="1" vertex="1">
          <mxGeometry x="1030.0000000000018" y="320.0000000000366" width="20" height="520" as="geometry" />
        </mxCell>
        <mxCell id="2" value="Трудомісткість етапів (в людино - днях)" style="fillColor=#23445D;strokeColor=#FFFFFF;strokeWidth=2;fontColor=#FFFFFF;fontStyle=1" parent="1" vertex="1">
          <mxGeometry x="110" y="60" width="320" height="40" as="geometry" />
        </mxCell>
        <mxCell id="3" value="" style="fillColor=#23445D;strokeColor=#FFFFFF;strokeWidth=2;fontColor=#FFFFFF;fontStyle=1" parent="1" vertex="1">
          <mxGeometry x="70" y="60" width="40" height="40" as="geometry" />
        </mxCell>
        <mxCell id="4" value="1.01.24" style="fillColor=#23445D;strokeColor=#FFFFFF;strokeWidth=2;fontColor=#FFFFFF;fontStyle=1" parent="1" vertex="1">
          <mxGeometry x="70.00000000000182" y="280.0000000000001" width="140" height="20" as="geometry" />
        </mxCell>
        <mxCell id="5" value="M" style="fillColor=#23445D;strokeColor=#FFFFFF;strokeWidth=2;fontColor=#FFFFFF;fontStyle=1" parent="1" vertex="1">
          <mxGeometry x="70.00000000000182" y="300.0000000000001" width="20" height="20" as="geometry" />
        </mxCell>
        <mxCell id="6" value="T" style="fillColor=#23445D;strokeColor=#FFFFFF;strokeWidth=2;fontColor=#FFFFFF;fontStyle=1" parent="1" vertex="1">
          <mxGeometry x="90.00000000000182" y="300.0000000000001" width="20" height="20" as="geometry" />
        </mxCell>
        <mxCell id="7" value="W" style="fillColor=#23445D;strokeColor=#FFFFFF;strokeWidth=2;fontColor=#FFFFFF;fontStyle=1" parent="1" vertex="1">
          <mxGeometry x="110.00000000000182" y="300.0000000000001" width="20" height="20" as="geometry" />
        </mxCell>
        <mxCell id="8" value="T" style="fillColor=#23445D;strokeColor=#FFFFFF;strokeWidth=2;fontColor=#FFFFFF;fontStyle=1" parent="1" vertex="1">
          <mxGeometry x="130.00000000000182" y="300.0000000000001" width="20" height="20" as="geometry" />
        </mxCell>
        <mxCell id="9" value="F" style="fillColor=#23445D;strokeColor=#FFFFFF;strokeWidth=2;fontColor=#FFFFFF;fontStyle=1" parent="1" vertex="1">
          <mxGeometry x="150.0000000000016" y="300.0000000000001" width="20" height="20" as="geometry" />
        </mxCell>
        <mxCell id="10" value="S" style="fillColor=#23445D;strokeColor=#FFFFFF;strokeWidth=2;fontColor=#FFFFFF;fontStyle=1" parent="1" vertex="1">
          <mxGeometry x="170.0000000000016" y="300.0000000000001" width="20" height="20" as="geometry" />
        </mxCell>
        <mxCell id="11" value="S" style="fillColor=#23445D;strokeColor=#FFFFFF;strokeWidth=2;fontColor=#FFFFFF;fontStyle=1" parent="1" vertex="1">
          <mxGeometry x="190.0000000000016" y="300.0000000000001" width="20" height="20" as="geometry" />
        </mxCell>
        <mxCell id="12" value="Тривалість" style="fillColor=#23445D;strokeColor=#FFFFFF;strokeWidth=2;fontColor=#FFFFFF;fontStyle=1" parent="1" vertex="1">
          <mxGeometry x="430.0000000000018" y="60.00000000000006" width="80.00000000000006" height="40.00000000000001" as="geometry" />
        </mxCell>
        <mxCell id="13" value="Початок" style="fillColor=#23445D;strokeColor=#FFFFFF;strokeWidth=2;fontColor=#FFFFFF;fontStyle=1" parent="1" vertex="1">
          <mxGeometry x="510.0000000000018" y="60.00000000000006" width="80.00000000000006" height="40.00000000000001" as="geometry" />
        </mxCell>
        <mxCell id="14" value="Кінець" style="fillColor=#23445D;strokeColor=#FFFFFF;strokeWidth=2;fontColor=#FFFFFF;fontStyle=1" parent="1" vertex="1">
          <mxGeometry x="590.0000000000018" y="60.000000000000114" width="80.00000000000006" height="40.00000000000001" as="geometry" />
        </mxCell>
        <mxCell id="15" value="8.01.24" style="fillColor=#23445D;strokeColor=#FFFFFF;strokeWidth=2;fontColor=#FFFFFF;fontStyle=1" parent="1" vertex="1">
          <mxGeometry x="210.00000000000182" y="280.0000000000001" width="140" height="20" as="geometry" />
        </mxCell>
        <mxCell id="16" value="M" style="fillColor=#23445D;strokeColor=#FFFFFF;strokeWidth=2;fontColor=#FFFFFF;fontStyle=1" parent="1" vertex="1">
          <mxGeometry x="210.00000000000182" y="300.0000000000001" width="20" height="20" as="geometry" />
        </mxCell>
        <mxCell id="17" value="T" style="fillColor=#23445D;strokeColor=#FFFFFF;strokeWidth=2;fontColor=#FFFFFF;fontStyle=1" parent="1" vertex="1">
          <mxGeometry x="230.00000000000182" y="300.0000000000001" width="20" height="20" as="geometry" />
        </mxCell>
        <mxCell id="18" value="W" style="fillColor=#23445D;strokeColor=#FFFFFF;strokeWidth=2;fontColor=#FFFFFF;fontStyle=1" parent="1" vertex="1">
          <mxGeometry x="250.00000000000182" y="300.0000000000001" width="20" height="20" as="geometry" />
        </mxCell>
        <mxCell id="19" value="T" style="fillColor=#23445D;strokeColor=#FFFFFF;strokeWidth=2;fontColor=#FFFFFF;fontStyle=1" parent="1" vertex="1">
          <mxGeometry x="270.0000000000018" y="300.0000000000001" width="20" height="20" as="geometry" />
        </mxCell>
        <mxCell id="20" value="F" style="fillColor=#23445D;strokeColor=#FFFFFF;strokeWidth=2;fontColor=#FFFFFF;fontStyle=1" parent="1" vertex="1">
          <mxGeometry x="290.0000000000016" y="300.0000000000001" width="20" height="20" as="geometry" />
        </mxCell>
        <mxCell id="21" value="S" style="fillColor=#23445D;strokeColor=#FFFFFF;strokeWidth=2;fontColor=#FFFFFF;fontStyle=1" parent="1" vertex="1">
          <mxGeometry x="310.0000000000016" y="300.0000000000001" width="20" height="20" as="geometry" />
        </mxCell>
        <mxCell id="22" value="S" style="fillColor=#23445D;strokeColor=#FFFFFF;strokeWidth=2;fontColor=#FFFFFF;fontStyle=1" parent="1" vertex="1">
          <mxGeometry x="330.0000000000016" y="300.0000000000001" width="20" height="20" as="geometry" />
        </mxCell>
        <mxCell id="23" value="15.01.24" style="fillColor=#23445D;strokeColor=#FFFFFF;strokeWidth=2;fontColor=#FFFFFF;fontStyle=1" parent="1" vertex="1">
          <mxGeometry x="350.0000000000018" y="280.00000000000006" width="140" height="20" as="geometry" />
        </mxCell>
        <mxCell id="24" value="M" style="fillColor=#23445D;strokeColor=#FFFFFF;strokeWidth=2;fontColor=#FFFFFF;fontStyle=1" parent="1" vertex="1">
          <mxGeometry x="350.0000000000018" y="300.00000000000006" width="20" height="20" as="geometry" />
        </mxCell>
        <mxCell id="25" value="T" style="fillColor=#23445D;strokeColor=#FFFFFF;strokeWidth=2;fontColor=#FFFFFF;fontStyle=1" parent="1" vertex="1">
          <mxGeometry x="370.0000000000018" y="300.00000000000006" width="20" height="20" as="geometry" />
        </mxCell>
        <mxCell id="26" value="W" style="fillColor=#23445D;strokeColor=#FFFFFF;strokeWidth=2;fontColor=#FFFFFF;fontStyle=1" parent="1" vertex="1">
          <mxGeometry x="390.0000000000018" y="300.00000000000006" width="20" height="20" as="geometry" />
        </mxCell>
        <mxCell id="27" value="T" style="fillColor=#23445D;strokeColor=#FFFFFF;strokeWidth=2;fontColor=#FFFFFF;fontStyle=1" parent="1" vertex="1">
          <mxGeometry x="410.0000000000018" y="300.00000000000006" width="20" height="20" as="geometry" />
        </mxCell>
        <mxCell id="28" value="F" style="fillColor=#23445D;strokeColor=#FFFFFF;strokeWidth=2;fontColor=#FFFFFF;fontStyle=1" parent="1" vertex="1">
          <mxGeometry x="430.0000000000016" y="300.00000000000006" width="20" height="20" as="geometry" />
        </mxCell>
        <mxCell id="29" value="S" style="fillColor=#23445D;strokeColor=#FFFFFF;strokeWidth=2;fontColor=#FFFFFF;fontStyle=1" parent="1" vertex="1">
          <mxGeometry x="450.0000000000016" y="300.00000000000006" width="20" height="20" as="geometry" />
        </mxCell>
        <mxCell id="30" value="S" style="fillColor=#23445D;strokeColor=#FFFFFF;strokeWidth=2;fontColor=#FFFFFF;fontStyle=1" parent="1" vertex="1">
          <mxGeometry x="470.0000000000016" y="300.00000000000006" width="20" height="20" as="geometry" />
        </mxCell>
        <mxCell id="31" value="22.01.24" style="fillColor=#23445D;strokeColor=#FFFFFF;strokeWidth=2;fontColor=#FFFFFF;fontStyle=1" parent="1" vertex="1">
          <mxGeometry x="490.0000000000018" y="280.00000000000006" width="140" height="20" as="geometry" />
        </mxCell>
        <mxCell id="32" value="M" style="fillColor=#23445D;strokeColor=#FFFFFF;strokeWidth=2;fontColor=#FFFFFF;fontStyle=1" parent="1" vertex="1">
          <mxGeometry x="490.0000000000018" y="300.00000000000006" width="20" height="20" as="geometry" />
        </mxCell>
        <mxCell id="33" value="T" style="fillColor=#23445D;strokeColor=#FFFFFF;strokeWidth=2;fontColor=#FFFFFF;fontStyle=1" parent="1" vertex="1">
          <mxGeometry x="510.0000000000018" y="300.00000000000006" width="20" height="20" as="geometry" />
        </mxCell>
        <mxCell id="34" value="W" style="fillColor=#23445D;strokeColor=#FFFFFF;strokeWidth=2;fontColor=#FFFFFF;fontStyle=1" parent="1" vertex="1">
          <mxGeometry x="530.0000000000018" y="300.00000000000006" width="20" height="20" as="geometry" />
        </mxCell>
        <mxCell id="35" value="T" style="fillColor=#23445D;strokeColor=#FFFFFF;strokeWidth=2;fontColor=#FFFFFF;fontStyle=1" parent="1" vertex="1">
          <mxGeometry x="550.0000000000018" y="300.00000000000006" width="20" height="20" as="geometry" />
        </mxCell>
        <mxCell id="36" value="F" style="fillColor=#23445D;strokeColor=#FFFFFF;strokeWidth=2;fontColor=#FFFFFF;fontStyle=1" parent="1" vertex="1">
          <mxGeometry x="570.0000000000016" y="300" width="20" height="20" as="geometry" />
        </mxCell>
        <mxCell id="37" value="S" style="fillColor=#23445D;strokeColor=#FFFFFF;strokeWidth=2;fontColor=#FFFFFF;fontStyle=1" parent="1" vertex="1">
          <mxGeometry x="590.0000000000016" y="300" width="20" height="20" as="geometry" />
        </mxCell>
        <mxCell id="38" value="S" style="fillColor=#23445D;strokeColor=#FFFFFF;strokeWidth=2;fontColor=#FFFFFF;fontStyle=1" parent="1" vertex="1">
          <mxGeometry x="610.0000000000016" y="300" width="20" height="20" as="geometry" />
        </mxCell>
        <mxCell id="39" value="29.01.24" style="fillColor=#23445D;strokeColor=#FFFFFF;strokeWidth=2;fontColor=#FFFFFF;fontStyle=1" parent="1" vertex="1">
          <mxGeometry x="630.0000000000018" y="280.00000000000006" width="140" height="20" as="geometry" />
        </mxCell>
        <mxCell id="40" value="M" style="fillColor=#23445D;strokeColor=#FFFFFF;strokeWidth=2;fontColor=#FFFFFF;fontStyle=1" parent="1" vertex="1">
          <mxGeometry x="630.0000000000018" y="300.00000000000006" width="20" height="20" as="geometry" />
        </mxCell>
        <mxCell id="41" value="T" style="fillColor=#23445D;strokeColor=#FFFFFF;strokeWidth=2;fontColor=#FFFFFF;fontStyle=1" parent="1" vertex="1">
          <mxGeometry x="650.0000000000018" y="300.00000000000006" width="20" height="20" as="geometry" />
        </mxCell>
        <mxCell id="42" value="W" style="fillColor=#23445D;strokeColor=#FFFFFF;strokeWidth=2;fontColor=#FFFFFF;fontStyle=1" parent="1" vertex="1">
          <mxGeometry x="670.0000000000018" y="300.00000000000006" width="20" height="20" as="geometry" />
        </mxCell>
        <mxCell id="43" value="T" style="fillColor=#23445D;strokeColor=#FFFFFF;strokeWidth=2;fontColor=#FFFFFF;fontStyle=1" parent="1" vertex="1">
          <mxGeometry x="690.0000000000018" y="300.00000000000006" width="20" height="20" as="geometry" />
        </mxCell>
        <mxCell id="44" value="F" style="fillColor=#23445D;strokeColor=#FFFFFF;strokeWidth=2;fontColor=#FFFFFF;fontStyle=1" parent="1" vertex="1">
          <mxGeometry x="710.0000000000016" y="300" width="20" height="20" as="geometry" />
        </mxCell>
        <mxCell id="45" value="S" style="fillColor=#23445D;strokeColor=#FFFFFF;strokeWidth=2;fontColor=#FFFFFF;fontStyle=1" parent="1" vertex="1">
          <mxGeometry x="730.0000000000016" y="300" width="20" height="20" as="geometry" />
        </mxCell>
        <mxCell id="46" value="S" style="fillColor=#23445D;strokeColor=#FFFFFF;strokeWidth=2;fontColor=#FFFFFF;fontStyle=1" parent="1" vertex="1">
          <mxGeometry x="750.0000000000016" y="300" width="20" height="20" as="geometry" />
        </mxCell>
        <mxCell id="47" value="5.02.24" style="fillColor=#23445D;strokeColor=#FFFFFF;strokeWidth=2;fontColor=#FFFFFF;fontStyle=1" parent="1" vertex="1">
          <mxGeometry x="770.0000000000018" y="280" width="140" height="20" as="geometry" />
        </mxCell>
        <mxCell id="48" value="M" style="fillColor=#23445D;strokeColor=#FFFFFF;strokeWidth=2;fontColor=#FFFFFF;fontStyle=1" parent="1" vertex="1">
          <mxGeometry x="770.0000000000018" y="300" width="20" height="20" as="geometry" />
        </mxCell>
        <mxCell id="49" value="T" style="fillColor=#23445D;strokeColor=#FFFFFF;strokeWidth=2;fontColor=#FFFFFF;fontStyle=1" parent="1" vertex="1">
          <mxGeometry x="790.0000000000018" y="300" width="20" height="20" as="geometry" />
        </mxCell>
        <mxCell id="50" value="W" style="fillColor=#23445D;strokeColor=#FFFFFF;strokeWidth=2;fontColor=#FFFFFF;fontStyle=1" parent="1" vertex="1">
          <mxGeometry x="810.0000000000018" y="300" width="20" height="20" as="geometry" />
        </mxCell>
        <mxCell id="51" value="T" style="fillColor=#23445D;strokeColor=#FFFFFF;strokeWidth=2;fontColor=#FFFFFF;fontStyle=1" parent="1" vertex="1">
          <mxGeometry x="830.0000000000018" y="300" width="20" height="20" as="geometry" />
        </mxCell>
        <mxCell id="52" value="F" style="fillColor=#23445D;strokeColor=#FFFFFF;strokeWidth=2;fontColor=#FFFFFF;fontStyle=1" parent="1" vertex="1">
          <mxGeometry x="850.0000000000016" y="300" width="20" height="20" as="geometry" />
        </mxCell>
        <mxCell id="53" value="S" style="fillColor=#23445D;strokeColor=#FFFFFF;strokeWidth=2;fontColor=#FFFFFF;fontStyle=1" parent="1" vertex="1">
          <mxGeometry x="870.0000000000016" y="300" width="20" height="20" as="geometry" />
        </mxCell>
        <mxCell id="54" value="S" style="fillColor=#23445D;strokeColor=#FFFFFF;strokeWidth=2;fontColor=#FFFFFF;fontStyle=1" parent="1" vertex="1">
          <mxGeometry x="890.0000000000016" y="300" width="20" height="20" as="geometry" />
        </mxCell>
        <mxCell id="55" value="12.02.24" style="fillColor=#23445D;strokeColor=#FFFFFF;strokeWidth=2;fontColor=#FFFFFF;fontStyle=1" parent="1" vertex="1">
          <mxGeometry x="910.0000000000018" y="280.0000000000001" width="140" height="20" as="geometry" />
        </mxCell>
        <mxCell id="56" value="M" style="fillColor=#23445D;strokeColor=#FFFFFF;strokeWidth=2;fontColor=#FFFFFF;fontStyle=1" parent="1" vertex="1">
          <mxGeometry x="910.0000000000018" y="300.0000000000001" width="20" height="20" as="geometry" />
        </mxCell>
        <mxCell id="57" value="T" style="fillColor=#23445D;strokeColor=#FFFFFF;strokeWidth=2;fontColor=#FFFFFF;fontStyle=1" parent="1" vertex="1">
          <mxGeometry x="930.0000000000018" y="300.0000000000001" width="20" height="20" as="geometry" />
        </mxCell>
        <mxCell id="58" value="W" style="fillColor=#23445D;strokeColor=#FFFFFF;strokeWidth=2;fontColor=#FFFFFF;fontStyle=1" parent="1" vertex="1">
          <mxGeometry x="950.0000000000018" y="300.0000000000001" width="20" height="20" as="geometry" />
        </mxCell>
        <mxCell id="59" value="T" style="fillColor=#23445D;strokeColor=#FFFFFF;strokeWidth=2;fontColor=#FFFFFF;fontStyle=1" parent="1" vertex="1">
          <mxGeometry x="970.0000000000018" y="300.0000000000001" width="20" height="20" as="geometry" />
        </mxCell>
        <mxCell id="60" value="F" style="fillColor=#23445D;strokeColor=#FFFFFF;strokeWidth=2;fontColor=#FFFFFF;fontStyle=1" parent="1" vertex="1">
          <mxGeometry x="990" y="300" width="20" height="20" as="geometry" />
        </mxCell>
        <mxCell id="61" value="S" style="fillColor=#23445D;strokeColor=#FFFFFF;strokeWidth=2;fontColor=#FFFFFF;fontStyle=1" parent="1" vertex="1">
          <mxGeometry x="1010.0000000000016" y="300.0000000000001" width="20" height="20" as="geometry" />
        </mxCell>
        <mxCell id="62" value="S" style="fillColor=#23445D;strokeColor=#FFFFFF;strokeWidth=2;fontColor=#FFFFFF;fontStyle=1" parent="1" vertex="1">
          <mxGeometry x="1030.0000000000016" y="300.0000000000001" width="20" height="20" as="geometry" />
        </mxCell>
        <mxCell id="243" value="" style="shape=mxgraph.arrows.bent_right_arrow;fillColor=#AE4132;strokeColor=none;strokeWidth=2;direction=south" parent="1" vertex="1">
          <mxGeometry x="190.00000000000205" y="349.99999999999966" width="10.000000000000341" height="9.99999999999983" as="geometry" />
        </mxCell>
        <mxCell id="244" value="" style="shape=mxgraph.flowchart.process;fillColor=#AE4132;strokeColor=none;strokeWidth=2;opacity=50" parent="1" vertex="1">
          <mxGeometry x="70" y="340" width="120" height="20" as="geometry" />
        </mxCell>
        <mxCell id="245" value="" style="shape=mxgraph.flowchart.process;fillColor=#AE4132;strokeColor=none;strokeWidth=2;opacity=50" parent="1" vertex="1">
          <mxGeometry x="190" y="360" width="160" height="20" as="geometry" />
        </mxCell>
        <mxCell id="246" value="" style="shape=mxgraph.flowchart.process;fillColor=#AE4132;strokeColor=none;strokeWidth=2;opacity=50" parent="1" vertex="1">
          <mxGeometry x="350" y="380" width="400" height="20" as="geometry" />
        </mxCell>
        <mxCell id="247" value="" style="shape=mxgraph.flowchart.process;fillColor=#AE4132;strokeColor=none;strokeWidth=2;opacity=50" parent="1" vertex="1">
          <mxGeometry x="1350" y="420" width="100" height="20" as="geometry" />
        </mxCell>
        <mxCell id="248" value="" style="shape=mxgraph.flowchart.process;fillColor=#AE4132;strokeColor=none;strokeWidth=2;opacity=50" parent="1" vertex="1">
          <mxGeometry x="750" y="400" width="600" height="20" as="geometry" />
        </mxCell>
        <mxCell id="250" value="" style="shape=mxgraph.arrows.bent_right_arrow;fillColor=#AE4132;strokeColor=none;strokeWidth=2;direction=south" parent="1" vertex="1">
          <mxGeometry x="350.0000000000007" y="370.0000000000001" width="10.000000000000341" height="9.99999999999983" as="geometry" />
        </mxCell>
        <mxCell id="253" value="" style="shape=mxgraph.arrows.bent_right_arrow;fillColor=#AE4132;strokeColor=none;strokeWidth=2;direction=south" parent="1" vertex="1">
          <mxGeometry x="750.000000000002" y="389.9999999999998" width="10.000000000000341" height="9.99999999999983" as="geometry" />
        </mxCell>
        <mxCell id="254" value="" style="shape=mxgraph.flowchart.process;fillColor=#AE4132;strokeColor=#000000;strokeWidth=2;opacity=100" parent="1" vertex="1">
          <mxGeometry x="70" y="320" width="1660" height="20" as="geometry" />
        </mxCell>
        <mxCell id="yzSinO0hrtpDDesFTwgu-342" value="" style="shape=mxgraph.flowchart.process;fillColor=#AE4132;strokeColor=none;strokeWidth=2;opacity=50" vertex="1" parent="1">
          <mxGeometry x="1450" y="440" width="60" height="20" as="geometry" />
        </mxCell>
        <mxCell id="yzSinO0hrtpDDesFTwgu-343" value="" style="shape=mxgraph.flowchart.process;fillColor=#AE4132;strokeColor=none;strokeWidth=2;opacity=50" vertex="1" parent="1">
          <mxGeometry x="1510" y="460" width="220" height="20" as="geometry" />
        </mxCell>
        <mxCell id="251" value="" style="shape=mxgraph.arrows.bent_right_arrow;fillColor=#AE4132;strokeColor=none;strokeWidth=2;direction=south" parent="1" vertex="1">
          <mxGeometry x="1510.000000000002" y="450.0000000000016" width="10.000000000000341" height="9.99999999999983" as="geometry" />
        </mxCell>
        <mxCell id="yzSinO0hrtpDDesFTwgu-359" value="Кількість виконавців" style="shape=mxgraph.flowchart.process;fillColor=#AE4132;strokeColor=none;strokeWidth=2;opacity=50" vertex="1" parent="1">
          <mxGeometry x="720" y="60" width="120" height="20" as="geometry" />
        </mxCell>
        <mxCell id="yzSinO0hrtpDDesFTwgu-360" value="Формування вимог" style="shape=mxgraph.flowchart.process;fillColor=#AE4132;strokeColor=none;strokeWidth=2;opacity=50" vertex="1" parent="1">
          <mxGeometry x="840" y="80" width="120" height="20" as="geometry" />
        </mxCell>
        <mxCell id="yzSinO0hrtpDDesFTwgu-361" value="Проєктування" style="shape=mxgraph.flowchart.process;fillColor=#AE4132;strokeColor=none;strokeWidth=2;opacity=50" vertex="1" parent="1">
          <mxGeometry x="960" y="100" width="120" height="20" as="geometry" />
        </mxCell>
        <mxCell id="yzSinO0hrtpDDesFTwgu-362" value="Реалізация" style="shape=mxgraph.flowchart.process;fillColor=#AE4132;strokeColor=none;strokeWidth=2;opacity=50" vertex="1" parent="1">
          <mxGeometry x="1080" y="120" width="120" height="20" as="geometry" />
        </mxCell>
        <mxCell id="yzSinO0hrtpDDesFTwgu-363" value="Тестування" style="shape=mxgraph.flowchart.process;fillColor=#AE4132;strokeColor=none;strokeWidth=2;opacity=50" vertex="1" parent="1">
          <mxGeometry x="1200" y="140" width="120" height="20" as="geometry" />
        </mxCell>
        <mxCell id="yzSinO0hrtpDDesFTwgu-364" value="Впровадження" style="shape=mxgraph.flowchart.process;fillColor=#AE4132;strokeColor=none;strokeWidth=2;opacity=50" vertex="1" parent="1">
          <mxGeometry x="1320" y="160" width="120" height="20" as="geometry" />
        </mxCell>
        <mxCell id="yzSinO0hrtpDDesFTwgu-365" value="Експлуатація та супровід" style="shape=mxgraph.flowchart.process;fillColor=#AE4132;strokeColor=none;strokeWidth=2;opacity=50" vertex="1" parent="1">
          <mxGeometry x="1440" y="180" width="150" height="20" as="geometry" />
        </mxCell>
        <mxCell id="yzSinO0hrtpDDesFTwgu-366" value="" style="shape=mxgraph.arrows.bent_right_arrow;fillColor=#AE4132;strokeColor=none;strokeWidth=2;direction=south" vertex="1" parent="1">
          <mxGeometry x="840.000000000002" y="69.99999999999977" width="10.000000000000341" height="9.99999999999983" as="geometry" />
        </mxCell>
        <mxCell id="yzSinO0hrtpDDesFTwgu-367" value="" style="shape=mxgraph.arrows.bent_right_arrow;fillColor=#AE4132;strokeColor=none;strokeWidth=2;direction=south" vertex="1" parent="1">
          <mxGeometry x="960.000000000002" y="89.99999999999977" width="10.000000000000341" height="9.99999999999983" as="geometry" />
        </mxCell>
        <mxCell id="yzSinO0hrtpDDesFTwgu-368" value="" style="shape=mxgraph.arrows.bent_right_arrow;fillColor=#AE4132;strokeColor=none;strokeWidth=2;direction=south" vertex="1" parent="1">
          <mxGeometry x="1080.000000000002" y="109.99999999999977" width="10.000000000000341" height="9.99999999999983" as="geometry" />
        </mxCell>
        <mxCell id="yzSinO0hrtpDDesFTwgu-369" value="" style="shape=mxgraph.arrows.bent_right_arrow;fillColor=#AE4132;strokeColor=none;strokeWidth=2;direction=south" vertex="1" parent="1">
          <mxGeometry x="1200.000000000002" y="129.99999999999977" width="10.000000000000341" height="9.99999999999983" as="geometry" />
        </mxCell>
        <mxCell id="yzSinO0hrtpDDesFTwgu-370" value="" style="shape=mxgraph.arrows.bent_right_arrow;fillColor=#AE4132;strokeColor=none;strokeWidth=2;direction=south" vertex="1" parent="1">
          <mxGeometry x="1320.000000000002" y="149.99999999999977" width="10.000000000000341" height="9.99999999999983" as="geometry" />
        </mxCell>
        <mxCell id="yzSinO0hrtpDDesFTwgu-371" value="" style="shape=mxgraph.arrows.bent_right_arrow;fillColor=#AE4132;strokeColor=none;strokeWidth=2;direction=south" vertex="1" parent="1">
          <mxGeometry x="1440.000000000002" y="169.99999999999977" width="10.000000000000341" height="9.99999999999983" as="geometry" />
        </mxCell>
      </root>
    </mxGraphModel>
  </diagram>
</mxfile>
